<svg width="32" height="33" xmlns="http://www.w3.org/2000/svg"><path d="M16.523.499c8.24.241 15.575 6.987 15.474 16.016-.098 8.921-7.664 15.788-16.334 15.612C7.265 31.955 0 25.11 0 16.297-.017 7.631 7.269.23 16.523.5zm1.15 16.054c0-.187.055-.221.23-.221.828.01 1.653.003 2.481.003.077 0 .157.028.168-.107.024-.365.066-.73.101-1.096.067-.72.126-1.44.2-2.158.013-.138-.015-.176-.158-.176-.884.007-1.772.004-2.656.004-.388 0-.395 0-.388-.39.01-.648-.035-1.296.028-1.944.035-.358.2-.538.535-.572.185-.02.37-.031.556-.031.618 0 1.233.003 1.852.014.133.003.178-.031.178-.173-.007-1.096-.003-2.196-.003-3.292 0-.324 0-.324-.336-.32-.087 0-.175.003-.262 0a36.514 36.514 0 00-2.128-.028 8.474 8.474 0 00-2.02.241c-.937.238-1.72.69-2.212 1.541-.36.624-.472 1.314-.486 2.02-.018.924-.052 1.848-.014 2.772.007.162-.052.186-.2.186-.583-.007-1.163.004-1.747-.007-.15-.003-.195.035-.195.186.007.88.003 1.758.003 2.637 0 .214.004.424 0 .638-.003.093.028.128.13.131.615.028 1.23.07 1.845.093.136.007.185.035.181.183-.01.707-.003 1.413-.003 2.12 0 2.561 0 5.123-.004 7.687 0 .162.05.2.203.197.427-.01.85-.014 1.276 0 .873.024 1.744.02 2.617-.045.234-.017.234-.014.234-.248-.003-1.641-.003-3.279-.003-4.916 0-1.644.003-3.285-.004-4.93z" fill="#AF935B" fill-rule="evenodd"/></svg>