<?xml version="1.0" encoding="UTF-8"?>
<svg width="32px" height="33px" viewBox="0 0 32 33" version="1.1" xmlns="http://www.w3.org/2000/svg" xmlns:xlink="http://www.w3.org/1999/xlink">
    <title>vKUgWw 2</title>
    <g id="Page-1" stroke="none" stroke-width="1" fill="none" fill-rule="evenodd">
        <g id="FOOTER" transform="translate(-1418.000000, -136.000000)" fill="#AF935B">
            <g id="Group" transform="translate(1418.000000, 136.491699)">
                <path d="M16.5225909,0.00710439357 C24.7629035,0.248409961 32.0981101,6.99462442 31.9967661,16.0228996 C31.8989168,24.9443108 24.3330663,31.811179 15.6629154,31.6353707 C7.26534492,31.4630096 0,24.6168257 0,15.805725 C-0.0174417365,7.13940818 7.26883922,-0.261778959 16.5225909,0.00710439357 Z M17.6723215,16.0608193 C17.6723215,15.8746693 17.7282356,15.8401973 17.9029666,15.8401973 C18.7311914,15.8505389 19.5559216,15.8436447 20.3841464,15.8436447 C20.461028,15.8436447 20.5414038,15.8712223 20.5518877,15.7367806 C20.57635,15.371375 20.6182863,15.0059699 20.6532325,14.6405643 C20.7196303,13.9200948 20.7790392,13.1996251 20.8524262,12.4826029 C20.8664047,12.344714 20.8384477,12.3067943 20.6951683,12.3067943 C19.8110297,12.3136888 18.9233963,12.3102418 18.0392576,12.3102418 C17.6513549,12.3102418 17.6443644,12.3102411 17.6513536,11.920705 C17.6618375,11.2726272 17.616407,10.6245496 17.6793101,9.97647178 C17.7142563,9.61796067 17.8785051,9.43870488 18.2139886,9.40423265 C18.3992034,9.38354932 18.584417,9.37320786 18.7696318,9.37320786 C19.3881795,9.37320786 20.0032324,9.37665487 20.6217801,9.38699654 C20.7545756,9.39044376 20.8000069,9.35597154 20.8000069,9.21463542 C20.7930177,8.11841873 20.796511,7.01875474 20.796511,5.92253804 C20.796511,5.59849915 20.7965119,5.59849903 20.4610284,5.60194626 C20.3736629,5.60194626 20.2862975,5.60539348 20.198932,5.60194626 C19.4895243,5.57092125 18.7801156,5.5640267 18.0707079,5.57436837 C17.3892571,5.58126282 16.7113003,5.64676004 16.0508173,5.81567394 C15.1142593,6.05353229 14.331465,6.50511828 13.8387236,7.35658224 C13.4787778,7.98052951 13.3669502,8.66997471 13.3529718,9.3766553 C13.3354987,10.3005109 13.3005527,11.2243663 13.3389935,12.1482219 C13.3459827,12.3102413 13.2865738,12.3343717 13.1397998,12.3343717 C12.5561983,12.3274772 11.9760915,12.3378195 11.3924901,12.3274779 C11.2422214,12.3240306 11.1967912,12.3619499 11.1967912,12.5136277 C11.2037804,13.3926694 11.200286,14.2717111 11.200286,15.1507528 C11.200286,15.3644806 11.2037806,15.5747612 11.200286,15.7884889 C11.1967914,15.8815639 11.2282434,15.9160357 11.3295874,15.919483 C11.9446404,15.9470607 12.5596929,15.9884278 13.174746,16.0125584 C13.3110361,16.0194528 13.3599612,16.0470302 13.3564666,16.1952608 C13.3459827,16.9019413 13.3529718,17.6086219 13.3529718,18.3153025 C13.3529718,20.8765889 13.3529716,23.4378749 13.3494769,26.0026084 C13.3494769,26.1646279 13.3984012,26.2025478 13.5521644,26.1991005 C13.978508,26.1887589 14.4013569,26.1853117 14.8277005,26.1991005 C15.7013553,26.2232311 16.5715164,26.2197843 17.4451713,26.1542871 C17.6793108,26.137051 17.6793101,26.1404978 17.6793101,25.9060866 C17.6758155,24.2652088 17.6758153,22.627779 17.6758153,20.9903484 C17.6758153,19.3460233 17.6793108,17.7051444 17.6723215,16.0608193 Z" id="Vector"></path>
            </g>
        </g>
    </g>
</svg>