<svg width="32" height="32" xmlns="http://www.w3.org/2000/svg" xmlns:xlink="http://www.w3.org/1999/xlink"><defs><path id="a" d="M0 0h32v32H0z"/></defs><g fill="none" fill-rule="evenodd"><mask id="b" fill="#fff"><use xlink:href="#a"/></mask><g fill="#AF935B" mask="url(#b)"><path d="M15.99-.001c8.838-.02 16.046 7.183 16.014 16.052-.032 8.881-7.22 15.952-16.018 15.948C7.156 31.995 0 24.824 0 16 0 7.18 7.152.02 15.99 0zM8.862 14.265a2.8 2.8 0 00-2.814 2.8c0 2.414 0 4.828.004 7.246 0 .225.02.449.08.673a2.825 2.825 0 002.726 2.114c4.883 0 9.762-.004 14.645.004 1.545 0 2.813-1.33 2.801-2.795-.024-2.406-.008-4.816-.004-7.227 0-.344-.052-.673-.172-.997-.376-1.04-1.465-1.814-2.565-1.814h-7.357c-2.45-.004-4.895-.004-7.344-.004zm2.433-7.21c-.28-1.05-.56-2.095-.828-3.144-.04-.152-.109-.208-.26-.204-.32.008-.641.008-.961 0-.176-.004-.208.068-.16.22.444 1.43.892 2.855 1.325 4.284.108.353.268.693.264 1.077-.008 1.073 0 2.147-.008 3.224 0 .164.052.228.22.22.3-.012.6-.004.9-.004.28 0 .28 0 .28-.276 0-1.07-.003-2.135-.003-3.204 0-.1-.004-.204.024-.296.224-.757.456-1.513.684-2.27.28-.93.564-1.858.849-2.787.04-.132-.004-.192-.14-.188H12.42c-.088 0-.156.032-.18.124-.164.665-.325 1.33-.493 1.994-.108.468-.228.937-.348 1.417-.068-.06-.084-.124-.104-.188zm5.916.664a1.61 1.61 0 00-.344-1.005c-.489-.637-1.305-.857-2.106-.589-.7.236-1.124.873-1.124 1.69v3.323c0 .961.464 1.534 1.408 1.686 1.181.192 2.214-.517 2.17-1.806-.02-.516-.004-1.041-.004-1.557V7.719zm4.607-1.422c0-.172-.048-.24-.229-.232a6.526 6.526 0 01-.74 0c-.204-.012-.26.056-.26.26.008 1.482-.004 2.963.012 4.445.004.304-.092.508-.328.677-.18.128-.365.256-.585.152-.212-.1-.176-.325-.176-.517 0-1.593-.004-3.191.004-4.785 0-.18-.06-.236-.232-.228-.24.012-.48.004-.72.004-.269 0-.273.004-.273.264v5.366c0 .144.02.292.048.436.085.393.317.625.689.673.388.052.716-.1 1.017-.324.148-.113.28-.245.42-.369.028-.024.056-.072.096-.04.02.016.028.06.028.088.004.128.008.252 0 .38-.008.14.052.189.188.185.26-.008.52-.004.78-.004.253 0 .253-.004.253-.26.004-1.025.004-2.047.004-3.068 0-1.033-.004-2.07.004-3.103z"/><path d="M16.694 16.64c0-.255.004-.26.257-.26.24 0 .48.013.72-.003.188-.012.24.068.24.248-.004.729 0 1.453 0 2.182 0 .068-.04.164.032.204.084.044.12-.06.168-.104.537-.484 1.29-.472 1.681.044.213.28.293.617.297.957.008 1.326.004 2.655.004 3.98 0 .228-.064.449-.16.653-.189.404-.665.604-1.173.512a1.321 1.321 0 01-.7-.356c-.029-.028-.053-.072-.097-.056-.06.016-.052.072-.048.116.024.196-.076.24-.248.232a7.206 7.206 0 00-.72 0c-.189.012-.257-.052-.257-.248.008-1.353.004-2.707.004-4.06v-4.04zm1.221 6.952c0 .072-.012.144.032.212.1.164.444.296.64.244.173-.044.273-.216.273-.484v-3.42c0-.1-.012-.2-.052-.292-.088-.208-.288-.304-.525-.26-.24.044-.368.196-.368.436v3.564zm3.058-3.26c.016-.644.228-1.2.788-1.577.58-.393 1.497-.389 2.058.012.472.336.612.845.636 1.381.024.54.004 1.081.008 1.622 0 .16-.08.188-.212.188-.608-.004-1.213.004-1.821-.004-.16-.004-.232.04-.228.212.02.465-.028.933.032 1.398.04.312.22.488.504.48.284-.008.46-.192.476-.513.008-.212.004-.428.004-.64 0-.116.036-.172.16-.172.309.004.613.004.921 0 .096 0 .156.032.16.132.012.468.004.933-.172 1.377-.268.665-.817.901-1.477.933-1.057.048-1.713-.588-1.81-1.63-.055-.584-.003-1.173-.031-1.653 0-.585-.008-1.065.004-1.546zm2.237-.304c-.028-.264-.208-.42-.468-.424-.288-.004-.456.132-.504.404-.028.16-.032.316-.028.476.008.557-.088.48.488.485.524.004.524.004.516-.52 0-.14.012-.28-.004-.421z"/><path d="M15.558 24.729c0 .248-.012.256-.26.256s-.492-.008-.74.004c-.145.004-.209-.036-.205-.188.004-.128.064-.329-.036-.373-.1-.048-.188.145-.288.225a2.1 2.1 0 01-.788.412c-.58.152-1.037-.232-1.057-.913-.012-.332-.004-.669-.004-1 0-1.414.004-2.828.004-4.245 0-.268 0-.268.26-.268.232 0 .468.012.7-.004.18-.012.225.056.225.228-.004 1.421 0 2.843 0 4.264v.34c-.004.165-.004.34.168.417.164.076.32.004.464-.092.248-.168.368-.369.364-.693-.02-1.41-.004-2.815-.008-4.224 0-.176.04-.252.232-.24.253.016.509.012.76 0 .157-.004.209.048.209.208-.004.989-.004 1.974 0 2.963-.003 0-.003 0 0 0v2.923zM9.49 17.862c0-.176-.044-.232-.224-.224-.32.012-.64 0-.96.008-.145.004-.209-.032-.2-.189.007-.3.003-.6.003-.9 0-.125.044-.177.176-.177 1.241.004 2.482.004 3.719 0 .132 0 .196.048.196.189-.004.3-.004.6 0 .9.004.129-.048.18-.176.177-.313-.004-.629.008-.941-.004-.192-.008-.248.056-.248.248.008 2.262.004 4.52.004 6.783 0 .32 0 .32-.332.32-.269 0-.533-.008-.8.004-.177.008-.229-.052-.229-.228.008-1.161.008-2.315.008-3.468 0-1.145-.004-2.294.004-3.44zm5.423-10.05c.012-.436.36-.657.745-.493.184.08.28.229.296.417.02.18.016.36.016.54v2.663c0 .112 0 .224-.04.336-.104.289-.272.393-.584.36a.496.496 0 01-.429-.48c-.016-.44-.008-.88-.012-1.321 0-.128 0-.256.004-.38 0-.549-.008-1.093.004-1.642z" fill-rule="nonzero"/></g></g></svg>